HIERARCHY
ROOT Hips
{
	OFFSET 0.00000 0.00000 0.00000
	CHANNELS 6 Xposition Yposition Zposition Zrotation Yrotation Xrotation 
	JOINT LHipJoint
	{
		OFFSET 0 0 0
		CHANNELS 3 Zrotation Yrotation Xrotation
		JOINT LeftHip
		{
			OFFSET 1.26600 -1.82114 0.91038
			CHANNELS 3 Zrotation Yrotation Xrotation
			JOINT LeftKnee
			{
				OFFSET 2.50076 -6.87080 0.00000
				CHANNELS 3 Zrotation Yrotation Xrotation
				JOINT LeftAnkle
				{
					OFFSET 2.57364 -7.07102 0.00000
					CHANNELS 3 Zrotation Yrotation Xrotation
					JOINT LeftToe
					{
						OFFSET 0.13572 -0.37290 1.97004
						CHANNELS 3 Zrotation Yrotation Xrotation
						End Site
						{
							OFFSET 0.00000 -0.00000 1.01383
						}
					}
				}
			}
		}
	}
	JOINT RHipJoint
	{
		OFFSET 0 0 0
		CHANNELS 3 Zrotation Yrotation Xrotation
		JOINT RightHip
		{
			OFFSET -1.20803 -1.82114 0.91038
			CHANNELS 3 Zrotation Yrotation Xrotation
			JOINT RightKnee
			{
				OFFSET -2.54916 -7.00377 0.00000
				CHANNELS 3 Zrotation Yrotation Xrotation
				JOINT RightAnkle
				{
					OFFSET -2.56374 -7.04382 0.00000
					CHANNELS 3 Zrotation Yrotation Xrotation
					JOINT RightToe
					{
						OFFSET -0.23520 -0.64621 2.09921
						CHANNELS 3 Zrotation Yrotation Xrotation
						End Site
						{
							OFFSET -0.00000 -0.00000 1.10065
						}
					}
				}
			}
		}
	}
	JOINT lowerback
	{
		OFFSET 0 0 0
		CHANNELS 3 Zrotation Yrotation Xrotation
		JOINT Chest
		{
			OFFSET 0.05492 2.10797 -0.12074
			CHANNELS 3 Zrotation Yrotation Xrotation
			JOINT Chest2
			{
				OFFSET 0.04577 2.11592 -0.04483
				CHANNELS 3 Zrotation Yrotation Xrotation
				JOINT lowerneck
				{
					OFFSET 0 0 0
					CHANNELS 3 Zrotation Yrotation Xrotation
					JOINT Neck
					{
						OFFSET -0.10759 1.80167 0.15770
						CHANNELS 3 Zrotation Yrotation Xrotation
						JOINT Head
						{
							OFFSET 0.09237 1.77509 -0.40848
							CHANNELS 3 Zrotation Yrotation Xrotation
							End Site
							{
								OFFSET 0.03805 1.84093 -0.15754
							}
						}
					}
				}
				JOINT LeftCollar
				{
					OFFSET 0 0 0
					CHANNELS 3 Zrotation Yrotation Xrotation
					JOINT LeftShoulder
					{
						OFFSET 3.42372 1.09575 -0.28209
CHANNELS 3 Zrotation Xrotation Yrotation
						JOINT LeftElbow
						{
OFFSET 0 -4.956810 0.000000
CHANNELS 3 Zrotation Xrotation Yrotation
							JOINT LeftWrist
							{
OFFSET 0 -3.409150 0.000000
CHANNELS 3 Zrotation Xrotation Yrotation
								JOINT lhand
								{
									OFFSET 0 0 0
CHANNELS 3 Zrotation Xrotation Yrotation
									JOINT LFingers
									{
OFFSET 0 -0.616400 0.000000
CHANNELS 3 Zrotation Xrotation Yrotation
										End Site
										{
OFFSET 0 -0.496960 0.000000
										}
									}
								}
								JOINT LThumb
								{
OFFSET 0 0.000000 0.000000
CHANNELS 3 Zrotation Xrotation Yrotation
									End Site
									{
OFFSET 0 -0.504550 0.504550
									}
								}
							}
						}
					}
				}
				JOINT RightCollar
				{
					OFFSET 0 0 0
					CHANNELS 3 Zrotation Yrotation Xrotation
					JOINT RightShoulder
					{
						OFFSET -3.24731 1.15872 -0.32221
CHANNELS 3 Zrotation Xrotation Yrotation
						JOINT RightElbow
						{
OFFSET 0 -5.352000 0.000000
CHANNELS 3 Zrotation Xrotation Yrotation
							JOINT RightWrist
							{
OFFSET 0 -3.437210 -0.000000
CHANNELS 3 Zrotation Xrotation Yrotation
								JOINT rhand
								{
									OFFSET 0 0 0
CHANNELS 3 Zrotation Xrotation Yrotation
									JOINT RFingers
									{
OFFSET 0 -0.720090 0.000000
CHANNELS 3 Zrotation Xrotation Yrotation
										End Site
										{
OFFSET 0 -0.580560 0.000000
										}
									}
								}
								JOINT RThumb
								{
OFFSET 0 0.000000 0.000000
CHANNELS 3 Zrotation Xrotation Yrotation
									End Site
									{
OFFSET 0 -0.589420 0.589420
									}
								}
							}
						}
					}
				}
			}
		}
	}
}
MOTION
Frames: 6
Frame Time: 0.008333333333333333
19.163400 20.376800 -11.100400 -5.091800 -5.353000 4.925000 0.000000 0.000000 0.000000 -14.557300 -4.498300 -13.574100 3.915800 12.047600 35.900400 1.676200 -6.368400 -23.249400 0.005100 0.462900 1.272100 0.000000 0.000000 0.000000 28.135600 2.329700 -14.325900 -3.775400 -11.855400 35.222500 -1.508300 10.565900 -22.124300 -0.378400 -3.950900 10.938500 2.058300 -2.223200 -1.004300 3.341400 -2.910800 -2.641900 2.303500 -1.462800 -2.078800 -15.425500 -10.364100 -5.987500 6.039600 -13.741200 22.482400 3.051500 -7.215000 9.612200 0.000000 0.000000 0.000000 -1.617500 5.689600 -23.186100 13.982800 -22.710200 2.821500 14.602700 6.160000 -24.836300 0.000000 0.000000 0.000000 -7.125000 0.000000 0.000000 -15.875700 54.831200 3.906800 0.000000 0.000000 0.000000 -2.349100 1.719800 17.049700 -12.741300 -20.907100 -2.360200 -20.597100 -9.754000 -11.821900 0.000000 0.000000 0.000000 7.125000 0.000000 -0.000000 4.593000 17.400600 3.019000
19.165395 20.366858 -11.114429 -4.807331 -5.238978 4.433199 0.000000 0.000000 0.000000 -14.893549 -4.330158 -13.148381 3.909162 12.038610 35.868580 1.656582 -6.663143 -23.090298 0.009259 0.612689 1.683745 0.000000 0.000000 0.000000 27.833699 2.107956 -13.952212 -3.799333 -11.888506 35.338600 -1.506340 10.531351 -22.107155 -0.416613 -4.139586 11.470179 1.770252 -2.185961 -0.609981 3.215024 -2.857629 -2.385171 2.343028 -1.431535 -2.028951 -15.143329 -9.863281 -5.768538 6.226678 -13.145368 22.431870 3.174113 -6.904576 9.470273 0.000000 0.000000 0.000000 -1.494369 5.219689 -24.444636 13.626283 -22.197945 2.685269 17.678375 3.814538 -23.804598 0.000000 0.000000 0.000000 -7.125000 0.000000 0.000000 -12.268352 54.404507 2.867917 0.000000 0.000000 0.000000 -2.195167 1.558268 17.063719 -12.755166 -20.927460 -2.365080 -20.330401 -9.629409 -12.210958 0.000000 0.000000 0.000000 7.125000 0.000000 0.000000 4.789963 17.012893 3.190004
19.175370 20.361764 -11.131294 -5.168610 -5.219569 4.211708 0.000000 0.000000 0.000000 -14.494414 -4.195216 -13.125627 3.960585 12.107740 36.114128 1.645509 -6.600482 -23.013933 0.000118 0.045757 0.125708 0.000000 0.000000 0.000000 28.212878 2.089768 -13.686946 -3.773161 -11.852261 35.211364 -1.471052 10.743327 -21.878665 -0.585804 -4.899511 13.622475 2.245688 -1.997471 -0.411600 3.209594 -2.602521 -2.150504 2.070771 -1.311861 -1.927444 -14.154023 -9.048546 -7.691390 5.561242 -11.837880 24.990414 2.875119 -6.264884 10.479843 0.000000 0.000000 0.000000 -1.383060 4.791370 -23.659382 13.421463 -21.901603 2.608436 16.926627 6.071155 -23.643409 0.000000 0.000000 0.000000 -7.125000 0.000000 0.000000 -12.954863 54.101235 2.936499 0.000000 0.000000 0.000000 -1.931604 1.241837 16.650843 -12.678063 -20.813715 -2.337648 -20.651355 -10.165462 -11.228275 0.000000 0.000000 0.000000 7.125000 0.000000 0.000000 4.539134 18.024386 2.921057
19.186050 20.361131 -11.153896 -4.965977 -5.017863 4.266156 0.000000 0.000000 0.000000 -14.671137 -4.167008 -13.344777 3.949146 12.092400 36.059669 1.592373 -7.085403 -22.606059 0.011350 0.687552 1.889411 0.000000 0.000000 0.000000 28.000127 2.611303 -13.777141 -3.803027 -11.893518 35.356472 -1.489123 10.418219 -21.972555 -0.689765 -5.307322 14.787664 2.169006 -1.943752 -0.356738 3.137192 -2.534824 -2.014513 2.036534 -1.276816 -1.819373 -12.617254 -7.323684 -10.391253 5.075374 -9.327714 28.396675 2.731732 -5.012694 11.891157 0.000000 0.000000 0.000000 -1.252153 4.780233 -23.112721 13.759897 -22.390389 2.735982 14.367434 8.590602 -24.286912 0.000000 0.000000 0.000000 -7.125000 0.000000 0.000000 -15.828810 54.253011 3.669536 0.000000 0.000000 0.000000 -1.911506 1.048863 16.352874 -12.671994 -20.804663 -2.335581 -19.821319 -9.874078 -11.688483 0.000000 0.000000 0.000000 7.125000 0.000000 0.000000 5.131894 17.607518 3.352638
19.208170 20.357996 -11.188100 -5.486301 -4.572011 4.278516 0.000000 0.000000 0.000000 -14.049708 -4.082206 -13.816892 4.046786 12.222417 36.523373 1.582940 -7.589819 -22.526188 0.008610 0.584583 1.606478 0.000000 0.000000 0.000000 28.624746 2.942725 -13.609321 -3.755378 -11.827583 35.124713 -1.524846 9.447306 -22.150759 -0.559493 -4.791038 13.313483 2.654186 -1.885998 0.011556 3.515340 -2.438425 -1.831144 2.163316 -1.232913 -1.844411 -11.591434 -5.411300 -11.980288 5.098903 -6.684999 30.829708 2.969228 -3.724173 12.859654 0.000000 0.000000 0.000000 -1.522212 4.832009 -24.447001 13.979370 -22.705196 2.820135 15.379682 6.792630 -22.385144 0.000000 0.000000 0.000000 -7.125000 0.000000 0.000000 -13.950853 52.565730 2.669947 0.000000 0.000000 0.000000 -2.386671 1.225073 16.584960 -12.989332 -21.271499 -2.449385 -20.232119 -10.031657 -11.990392 0.000000 0.000000 0.000000 7.125000 0.000000 0.000000 4.852609 17.254361 3.206312
19.248390 20.359105 -11.229610 -5.610728 -3.837845 4.070396 0.000000 0.000000 0.000000 -14.036097 -4.732610 -13.726651 4.060430 12.240402 36.587686 1.544970 -7.609194 -22.248141 0.003332 0.371008 1.019320 0.000000 0.000000 0.000000 28.646192 2.573763 -13.693789 -3.747431 -11.816524 35.085887 -1.550235 9.154362 -22.317101 -0.531271 -4.670641 12.971504 3.100352 -1.845981 0.649990 3.631587 -2.356313 -1.521195 2.048803 -1.196554 -1.899492 -10.552061 -3.641113 -12.058241 4.980731 -4.316175 31.717922 3.130279 -2.579520 12.947828 0.000000 0.000000 0.000000 -1.799333 4.710248 -26.414648 14.369087 -23.259921 2.972360 16.928642 3.174891 -24.080145 0.000000 0.000000 0.000000 -7.125000 0.000000 0.000000 -13.155089 54.535444 3.122628 0.000000 0.000000 0.000000 -2.731577 1.549444 16.945436 -13.331099 -21.770453 -2.574762 -19.775968 -10.646948 -11.393867 0.000000 0.000000 0.000000 7.125000 0.000000 0.000000 5.157484 17.921342 3.333764
